<svg width="13" height="12" viewBox="0 0 13 12" fill="none" xmlns="http://www.w3.org/2000/svg">
<path d="M12.4651 0.000289681C12.3302 0.00544757 12.2021 0.0777934 12.108 0.202L4.16345 10.3916L0.894313 6.19867C0.846444 6.13472 0.789108 6.08367 0.725664 6.0485C0.662219 6.01333 0.593941 5.99474 0.524828 5.99384C0.455715 5.99294 0.387156 6.00974 0.323166 6.04324C0.259177 6.07675 0.201043 6.1263 0.15217 6.18898C0.103297 6.25167 0.0646674 6.32623 0.0385427 6.4083C0.012418 6.49037 -0.000676275 6.57831 2.68896e-05 6.66695C0.000730055 6.75559 0.0152165 6.84317 0.0426377 6.92454C0.070059 7.00592 0.109864 7.07945 0.159721 7.14085L3.79615 11.8049C3.89358 11.9298 4.02569 12 4.16345 12C4.3012 12 4.43332 11.9298 4.53074 11.8049L12.8426 1.14418C12.9177 1.0506 12.9689 0.930102 12.9897 0.798495C13.0104 0.666888 12.9997 0.530308 12.9589 0.406653C12.9181 0.282998 12.8491 0.178037 12.761 0.105524C12.6729 0.0330121 12.5698 -0.00366836 12.4651 0.000289681Z" fill="#13F195"/>
</svg>
