<svg width="56" height="12" viewBox="0 0 56 12" fill="none" xmlns="http://www.w3.org/2000/svg">
<path d="M8.71582 5.85254V9.72852C8.56999 9.91536 8.33984 10.1182 8.02539 10.3369C7.71549 10.5557 7.3099 10.7448 6.80859 10.9043C6.30729 11.0592 5.69206 11.1367 4.96289 11.1367C4.32943 11.1367 3.75065 11.0319 3.22656 10.8223C2.70247 10.6081 2.2513 10.2959 1.87305 9.88574C1.49479 9.47559 1.20312 8.97428 0.998047 8.38184C0.792969 7.78939 0.69043 7.11263 0.69043 6.35156V5.69531C0.69043 4.93424 0.786133 4.25749 0.977539 3.66504C1.1735 3.07259 1.4515 2.57129 1.81152 2.16113C2.17611 1.75098 2.61133 1.4388 3.11719 1.22461C3.6276 1.01042 4.19727 0.90332 4.82617 0.90332C5.66927 0.90332 6.36198 1.04232 6.9043 1.32031C7.45117 1.59831 7.87044 1.98112 8.16211 2.46875C8.45378 2.95182 8.63607 3.50781 8.70898 4.13672H6.87695C6.82682 3.79036 6.72656 3.4873 6.57617 3.22754C6.42578 2.96322 6.21159 2.75814 5.93359 2.6123C5.66016 2.46191 5.30469 2.38672 4.86719 2.38672C4.49805 2.38672 4.1722 2.45964 3.88965 2.60547C3.6071 2.7513 3.37012 2.96322 3.17871 3.24121C2.9873 3.51921 2.84147 3.86328 2.74121 4.27344C2.64551 4.68359 2.59766 5.15299 2.59766 5.68164V6.35156C2.59766 6.88477 2.65234 7.35872 2.76172 7.77344C2.87109 8.18359 3.02832 8.52995 3.2334 8.8125C3.44303 9.09049 3.70052 9.30241 4.00586 9.44824C4.31576 9.58952 4.66667 9.66016 5.05859 9.66016C5.41406 9.66016 5.70801 9.63053 5.94043 9.57129C6.17741 9.50749 6.36654 9.43229 6.50781 9.3457C6.64909 9.25911 6.75846 9.1748 6.83594 9.09277V7.22656H4.86035V5.85254H8.71582ZM17.0898 9.52344V11H11.7988V9.52344H17.0898ZM12.373 1.04688V11H10.4932V1.04688H12.373ZM16.3994 5.15527V6.59766H11.7988V5.15527H16.3994ZM17.0693 1.04688V2.53027H11.7988V1.04688H17.0693ZM19.2158 1.04688H20.8428L23.5635 8.53906L26.2773 1.04688H27.9111L24.2129 11H22.9072L19.2158 1.04688ZM18.3955 1.04688H19.9883L20.2754 7.93066V11H18.3955V1.04688ZM27.1318 1.04688H28.7314V11H26.8516V7.93066L27.1318 1.04688ZM54.0381 8.41602C54.0381 8.22461 54.0085 8.05371 53.9492 7.90332C53.8945 7.74837 53.792 7.60938 53.6416 7.48633C53.4958 7.35872 53.2884 7.23568 53.0195 7.11719C52.7552 6.99414 52.4134 6.86654 51.9941 6.73438C51.5293 6.58854 51.0964 6.42448 50.6953 6.24219C50.2943 6.0599 49.9411 5.84798 49.6357 5.60645C49.335 5.36491 49.1003 5.08691 48.9316 4.77246C48.763 4.45345 48.6787 4.08431 48.6787 3.66504C48.6787 3.25488 48.7653 2.88118 48.9385 2.54395C49.1162 2.20671 49.3669 1.91732 49.6904 1.67578C50.014 1.42969 50.3945 1.24056 50.832 1.1084C51.2741 0.976237 51.7617 0.910156 52.2949 0.910156C53.0332 0.910156 53.6712 1.0446 54.209 1.31348C54.7513 1.58236 55.1706 1.94694 55.4668 2.40723C55.763 2.86751 55.9111 3.38477 55.9111 3.95898H54.0381C54.0381 3.64909 53.972 3.37565 53.8398 3.13867C53.7122 2.90169 53.5163 2.71484 53.252 2.57812C52.9922 2.44141 52.6641 2.37305 52.2676 2.37305C51.8848 2.37305 51.5658 2.43001 51.3105 2.54395C51.0599 2.65788 50.8708 2.81283 50.7432 3.00879C50.6201 3.20475 50.5586 3.4235 50.5586 3.66504C50.5586 3.84733 50.6019 4.01139 50.6885 4.15723C50.7751 4.2985 50.9049 4.43294 51.0781 4.56055C51.2513 4.68359 51.4655 4.7998 51.7207 4.90918C51.9805 5.014 52.2812 5.11882 52.623 5.22363C53.1699 5.3877 53.6484 5.56999 54.0586 5.77051C54.4733 5.97103 54.8174 6.19889 55.0908 6.4541C55.3688 6.70931 55.5762 6.99642 55.7129 7.31543C55.8542 7.63444 55.9248 7.99674 55.9248 8.40234C55.9248 8.83073 55.8405 9.21354 55.6719 9.55078C55.5033 9.88802 55.2617 10.1751 54.9473 10.4121C54.6328 10.6491 54.2546 10.8291 53.8125 10.9521C53.375 11.0752 52.8851 11.1367 52.3428 11.1367C51.8597 11.1367 51.3812 11.0729 50.9072 10.9453C50.4378 10.8132 50.0117 10.6172 49.6289 10.3574C49.2461 10.0931 48.9408 9.76042 48.7129 9.35938C48.485 8.95378 48.3711 8.47982 48.3711 7.9375H50.2578C50.2578 8.25195 50.3079 8.52083 50.4082 8.74414C50.513 8.96289 50.6589 9.1429 50.8457 9.28418C51.0371 9.4209 51.2604 9.52116 51.5156 9.58496C51.7708 9.64876 52.0465 9.68066 52.3428 9.68066C52.7256 9.68066 53.04 9.62826 53.2861 9.52344C53.5368 9.41406 53.7236 9.26367 53.8467 9.07227C53.9743 8.88086 54.0381 8.66211 54.0381 8.41602Z" fill="#13F195"/>
<path d="M36.1826 1.04688H38.0625V7.65723C38.0625 8.41829 37.8984 9.05859 37.5703 9.57812C37.2422 10.0931 36.7956 10.4827 36.2305 10.7471C35.6654 11.0068 35.0228 11.1367 34.3027 11.1367C33.5736 11.1367 32.9242 11.0068 32.3545 10.7471C31.7848 10.4827 31.3382 10.0931 31.0146 9.57812C30.6911 9.05859 30.5293 8.41829 30.5293 7.65723V1.04688H32.4092V7.65723C32.4092 8.12207 32.4867 8.5026 32.6416 8.79883C32.7965 9.09049 33.0153 9.30697 33.2979 9.44824C33.5804 9.58952 33.9154 9.66016 34.3027 9.66016C34.6947 9.66016 35.0296 9.58952 35.3076 9.44824C35.5902 9.30697 35.8066 9.09049 35.957 8.79883C36.1074 8.5026 36.1826 8.12207 36.1826 7.65723V1.04688ZM43.6748 7.37012H41.1113V5.89355H43.6748C44.0941 5.89355 44.4336 5.8252 44.6934 5.68848C44.9577 5.5472 45.1514 5.35579 45.2744 5.11426C45.3975 4.86816 45.459 4.58789 45.459 4.27344C45.459 3.9681 45.3975 3.68327 45.2744 3.41895C45.1514 3.15462 44.9577 2.94043 44.6934 2.77637C44.4336 2.6123 44.0941 2.53027 43.6748 2.53027H41.7266V11H39.8467V1.04688H43.6748C44.4495 1.04688 45.1104 1.18587 45.6572 1.46387C46.2087 1.7373 46.6279 2.11784 46.915 2.60547C47.2067 3.08854 47.3525 3.63997 47.3525 4.25977C47.3525 4.90234 47.2067 5.45605 46.915 5.9209C46.6279 6.38574 46.2087 6.74349 45.6572 6.99414C45.1104 7.24479 44.4495 7.37012 43.6748 7.37012Z" fill="white"/>
</svg>
