<svg width="199" height="99" viewBox="0 0 199 99" fill="none" xmlns="http://www.w3.org/2000/svg">
<g clip-path="url(#clip0_1067_2808)">
<path d="M198.29 53.39C198.09 55.15 197.93 56.92 197.67 58.68C196.51 66.5 194.44 74.05 189.76 80.56C183.91 88.7 175.98 93.96 166.27 96.51C154.88 99.49 143.51 99.58 132.21 96.03C126.15 94.12 116.97 88.28 113.1 83.95C116.97 78.81 120.85 73.66 124.78 68.44C126.19 69.61 127.51 70.75 128.88 71.84C132.78 74.96 137.02 77.53 141.96 78.54C146.31 79.44 150.75 79.21 155.16 78.86C159.52 78.52 163.61 77.32 167.4 75.11C173.2 71.74 176.35 66.57 177.65 60.11C178.44 56.2 178.87 52.27 178.72 48.28C178.49 42.14 176.36 36.75 172.44 32.04C168.57 27.4 164.1 23.61 158.37 21.34C154.3 19.73 150.15 19.49 145.88 19.71C137.6 20.13 131.18 24.2 125.49 29.83C120.91 34.36 117.24 39.59 113.71 44.94C108.71 52.52 103.81 60.18 98.7697 67.73C93.8797 75.05 88.0897 81.59 81.3597 87.29C73.7897 93.7 65.1297 97.48 55.1997 98.27C51.2297 98.59 47.2697 98.85 43.2997 98.29C35.4197 97.19 28.2497 94.25 21.8097 89.63C12.0797 82.65 5.29971 73.49 1.90971 61.97C-1.74029 49.57 -0.0702896 37.69 6.18971 26.52C13.3297 13.78 23.9297 5.23003 38.1297 1.39003C44.2597 -0.269971 50.4997 -0.299971 56.7697 0.550029C67.0397 1.93003 75.8697 6.34003 83.5697 13.16C85.1797 14.59 85.2597 14.61 84.1397 16.42C81.3397 20.93 78.4697 25.41 75.6297 29.9C75.3597 30.32 75.0297 30.71 74.6397 31.24C73.8097 30.55 72.9997 29.92 72.2397 29.23C68.4497 25.73 64.3597 22.65 59.3697 21.1C48.9997 17.87 39.5497 19.67 31.1897 26.67C26.5697 30.54 22.8297 35.07 21.0197 40.94C18.0397 50.6 19.8097 59.32 26.2397 67.11C30.3397 72.07 35.3397 75.74 41.4397 77.9C45.1897 79.23 49.0397 79.2 52.9197 78.96C60.3897 78.49 66.4197 75 71.7397 69.98C76.4097 65.58 80.1397 60.43 83.6697 55.13C88.8897 47.29 93.9597 39.34 99.2297 31.54C104.11 24.32 109.63 17.63 116.29 11.93C124.01 5.33003 132.89 1.65003 142.99 0.370029C168.3 -2.83997 191.92 15.77 197.07 39.3C197.56 41.52 197.76 43.81 198.11 46.07C198.14 46.3 198.22 46.51 198.28 46.74V53.41V53.39H198.29Z" fill="#13F195"/>
</g>
<defs>
<clipPath id="clip0_1067_2808">
<rect width="198.29" height="98.72" fill="white"/>
</clipPath>
</defs>
</svg>
