<svg width="32" height="32" viewBox="0 0 32 32" fill="none" xmlns="http://www.w3.org/2000/svg">
<path fill-rule="evenodd" clip-rule="evenodd" d="M2 24C2 24.203 2.039 24.395 2.095 24.578L11 15L2 8V24ZM28.444 25.946L19.42 16.33L16 18.915L12.728 16.314L3.556 25.946C3.699 25.979 28.301 25.979 28.444 25.946ZM30 24V8L21 15L29.905 24.578C29.961 24.395 30 24.203 30 24ZM3 6L16 16L29 6H3ZM4 4H28C30.209 4 32 5.791 32 8V24C32 26.209 30.209 28 28 28H4C1.791 28 0 26.209 0 24V8C0 5.791 1.791 4 4 4Z" fill="#13F195"/>
</svg>
