<svg width="32" height="32" viewBox="0 0 32 32" fill="none" xmlns="http://www.w3.org/2000/svg">
<path fill-rule="evenodd" clip-rule="evenodd" d="M30.8159 5.99298C31.2397 3.92662 29.2101 2.20944 27.2425 2.96966L3.12362 12.2883C0.926308 13.1373 0.828401 16.2099 2.96719 17.197L8.21962 19.6213L10.7183 28.3665C10.8481 28.8207 11.2085 29.1725 11.6658 29.291C12.1232 29.4094 12.6091 29.2771 12.9431 28.943L16.792 25.0941L22.1836 29.1378C23.7487 30.3115 26.0028 29.4566 26.3959 27.5402L30.8159 5.99298ZM4.08468 14.7758L28.2036 5.45713L23.7836 27.0045L17.467 22.2669C16.9362 21.8687 16.1934 21.9215 15.7242 22.3907L14.0756 24.0393L14.571 21.3151L24.2764 11.6097C24.7488 11.1374 24.7987 10.3884 24.3932 9.85757C23.9878 9.32672 23.2522 9.17782 22.6722 9.50924L9.2686 17.1683L4.08468 14.7758ZM10.9029 19.3058L11.7114 22.1357L12.0218 20.4283C12.0703 20.1615 12.1991 19.9158 12.3908 19.7241L15.3507 16.7643L10.9029 19.3058Z" fill="#13F195"/>
</svg>
